<?xml version="1.0" standalone="no"?>
<!DOCTYPE svg PUBLIC "-//W3C//DTD SVG 20010904//EN"
        "http://www.w3.org/TR/2001/REC-SVG-20010904/DTD/svg10.dtd">
<svg version="1.0" xmlns="http://www.w3.org/2000/svg"
     width="500.000000pt" height="500.000000pt" viewBox="0 0 500.000000 500.000000"
     preserveAspectRatio="xMidYMid meet">
    <metadata>
        Created by potrace 1.11, written by Peter Selinger 2001-2013
    </metadata>
    <g transform="translate(0.000000,500.000000) scale(0.100000,-0.100000)"
       fill="#000000" stroke="none">
        <path d="M3450 3990 l0 -220 -222 -2 -223 -3 0 -155 0 -155 225 -5 225 -5 0
-220 0 -220 158 -3 157 -3 0 226 0 225 220 0 220 0 0 160 0 160 -220 0 -220 0
0 220 0 220 -160 0 -160 0 0 -220z"/>
        <path d="M790 2280 l0 -1490 1490 0 1490 0 0 970 0 970 -160 0 -160 0 0 -810
0 -810 -1172 0 -1173 0 0 1170 0 1170 813 0 812 0 0 160 0 160 -970 0 -970 0
0 -1490z"/>
        <path d="M1829 3026 c-5 -6 -9 -79 -9 -163 l0 -153 148 0 147 0 0 -435 0 -435
-147 0 -148 0 0 -155 0 -155 455 0 455 0 0 155 0 155 -147 0 -148 0 3 590 c1
324 1 591 0 592 -11 8 -601 11 -609 4z"/>
    </g>
</svg>
